<svg width="215" height="32" fill="none" xmlns="http://www.w3.org/2000/svg"><path d="M48.96 17.566c0-1.968.462-3.539 1.384-4.71.93-1.18 2.16-1.77 3.691-1.77 1.446 0 2.582.504 3.41 1.512l.13-1.278h2.566v12.293c0 1.664-.52 2.977-1.559 3.938-1.031.96-2.426 1.441-4.184 1.441-.93 0-1.84-.195-2.73-.586-.883-.383-1.555-.886-2.016-1.511L51 25.184c.875 1.039 1.953 1.558 3.234 1.558.946 0 1.692-.258 2.239-.773.547-.508.82-1.258.82-2.25v-.856c-.82.914-1.914 1.371-3.281 1.371-1.485 0-2.7-.59-3.645-1.77-.937-1.179-1.406-2.812-1.406-4.898zm2.837.247c0 1.273.258 2.277.773 3.011.524.727 1.246 1.09 2.168 1.09 1.149 0 2-.492 2.555-1.477V14.86c-.54-.96-1.383-1.441-2.531-1.441-.938 0-1.668.371-2.192 1.113-.515.742-.773 1.836-.773 3.281zM66.106 24h-2.848V11.32h2.848V24zM63.082 8.027c0-.437.137-.8.41-1.09.281-.289.68-.433 1.196-.433.515 0 .914.144 1.195.434.281.289.422.652.422 1.09 0 .429-.14.788-.422 1.077-.281.282-.68.422-1.195.422-.516 0-.915-.14-1.196-.422-.273-.289-.41-.648-.41-1.078zm9.703.211v3.082h2.238v2.11h-2.238v7.078c0 .484.094.836.281 1.055.196.21.54.316 1.032.316.328 0 .66-.04.996-.117v2.203c-.649.18-1.274.27-1.875.27-2.188 0-3.281-1.208-3.281-3.622V13.43h-2.086v-2.11h2.085V8.238h2.848zm7.23 4.465c.93-1.078 2.106-1.617 3.528-1.617 2.703 0 4.074 1.543 4.113 4.629V24H84.81v-8.18c0-.875-.192-1.492-.575-1.851-.375-.367-.93-.551-1.664-.551-1.14 0-1.992.508-2.554 1.523V24h-2.848V6h2.848v6.703zm18.212 10.055c-.836.984-2.024 1.476-3.563 1.476-1.375 0-2.418-.402-3.129-1.207-.703-.804-1.054-1.968-1.054-3.492V11.32h2.847v8.18c0 1.61.668 2.414 2.004 2.414 1.383 0 2.316-.496 2.8-1.488V11.32h2.848V24h-2.683l-.07-1.242zm16.781-4.969c0 1.969-.442 3.535-1.324 4.7-.875 1.163-2.082 1.745-3.622 1.745-1.484 0-2.64-.535-3.468-1.605L106.453 24h-2.578V6h2.848v6.54c.82-.97 1.925-1.454 3.316-1.454 1.547 0 2.762.574 3.645 1.723.882 1.148 1.324 2.754 1.324 4.816v.164zm-2.848-.246c0-1.375-.242-2.406-.726-3.094-.485-.687-1.188-1.031-2.11-1.031-1.234 0-2.101.539-2.601 1.617v5.227c.507 1.101 1.382 1.652 2.625 1.652.89 0 1.578-.332 2.062-.996.485-.664.735-1.668.75-3.012v-.363z" fill="#737380"/><path d="M126.727 26.238H115.98V24h10.747v2.238zm7.089-2.004c-1.804 0-3.269-.566-4.394-1.699-1.117-1.14-1.676-2.656-1.676-4.547v-.351c0-1.266.242-2.395.727-3.387.492-1 1.179-1.777 2.062-2.332.883-.555 1.867-.832 2.953-.832 1.727 0 3.059.55 3.996 1.652.946 1.102 1.418 2.66 1.418 4.676v1.148h-8.285c.086 1.047.434 1.875 1.043 2.485.617.61 1.391.914 2.32.914 1.305 0 2.368-.527 3.188-1.582l1.535 1.465a5.16 5.16 0 01-2.039 1.77c-.844.413-1.793.62-2.848.62zm-.339-10.863c-.782 0-1.415.274-1.899.82-.476.547-.781 1.309-.914 2.286h5.426v-.211c-.063-.953-.317-1.672-.762-2.157-.445-.492-1.062-.738-1.851-.738zm12.199 2.121l2.414-4.172h3.164l-3.879 6.246L151.383 24h-3.141l-2.531-4.336-2.52 4.336h-3.164l4.008-6.434-3.867-6.246h3.141l2.367 4.172zm18.621 2.297c0 1.961-.445 3.527-1.336 4.7-.891 1.163-2.086 1.745-3.586 1.745-1.391 0-2.504-.457-3.34-1.37v6.011h-2.847V11.32h2.624l.118 1.29c.836-1.016 1.972-1.524 3.41-1.524 1.547 0 2.758.578 3.633 1.734.882 1.149 1.324 2.746 1.324 4.793v.176zm-2.836-.246c0-1.266-.254-2.27-.762-3.012-.5-.742-1.219-1.113-2.156-1.113-1.164 0-2 .48-2.508 1.441v5.625c.516.985 1.36 1.477 2.531 1.477.907 0 1.614-.363 2.122-1.09.515-.734.773-1.844.773-3.328zM169.746 24h-2.848V6h2.848v18zm2.578-6.457c0-1.242.246-2.36.738-3.352.493-1 1.184-1.765 2.075-2.296.89-.54 1.914-.81 3.07-.81 1.711 0 3.098.552 4.16 1.653 1.071 1.102 1.649 2.563 1.735 4.383l.011.668c0 1.25-.242 2.367-.726 3.352-.477.984-1.164 1.746-2.063 2.285-.89.539-1.922.808-3.094.808-1.789 0-3.222-.593-4.3-1.78-1.071-1.196-1.606-2.786-1.606-4.77v-.141zm2.848.246c0 1.305.269 2.328.808 3.07.54.735 1.29 1.102 2.25 1.102.961 0 1.708-.375 2.239-1.125.539-.75.808-1.848.808-3.293 0-1.281-.277-2.297-.832-3.047-.547-.75-1.293-1.125-2.238-1.125-.93 0-1.668.371-2.215 1.113-.547.735-.82 1.836-.82 3.305zm17.988-3.867a7.049 7.049 0 00-1.16-.094c-1.305 0-2.184.5-2.637 1.5V24h-2.847V11.32h2.718l.071 1.418c.687-1.101 1.64-1.652 2.859-1.652.406 0 .742.055 1.008.164l-.012 2.672zm7.149 10.312c-1.805 0-3.27-.566-4.395-1.699-1.117-1.14-1.676-2.656-1.676-4.547v-.351c0-1.266.242-2.395.727-3.387.492-1 1.18-1.777 2.062-2.332.883-.555 1.868-.832 2.953-.832 1.727 0 3.059.55 3.997 1.652.945 1.102 1.418 2.66 1.418 4.676v1.148h-8.286c.086 1.047.434 1.875 1.043 2.485.618.61 1.391.914 2.321.914 1.304 0 2.367-.527 3.187-1.582l1.535 1.465a5.153 5.153 0 01-2.039 1.77c-.844.413-1.793.62-2.847.62zm-.34-10.863c-.781 0-1.414.274-1.899.82-.476.547-.781 1.309-.914 2.286h5.426v-.211c-.062-.953-.316-1.672-.762-2.157-.445-.492-1.062-.738-1.851-.738zm14.285.55a7.049 7.049 0 00-1.16-.093c-1.305 0-2.184.5-2.637 1.5V24h-2.848V11.32h2.719l.07 1.418c.688-1.101 1.641-1.652 2.86-1.652.406 0 .742.055 1.008.164l-.012 2.672z" fill="#A8A8B3"/><path fill-rule="evenodd" clip-rule="evenodd" d="M0 16C0 7.16 7.16 0 16 0s16 7.16 16 16c0 8.832-7.16 16-16 16S0 24.832 0 16zm6.4 9.6l13.104-6.096L25.6 6.4l-13.104 6.096L6.4 25.6zM17.76 16a1.76 1.76 0 11-3.52 0 1.76 1.76 0 013.52 0z" fill="#121214"/></svg>